PathFileType	4	(X/Y/Z)	TVC_41_BWA_06_walk_RCNL2025.trc
DataRate	CameraRate	NumFrames	NumMarkers	Units	OrigDataRate	OrigDataStartFrame	OrigNumFrames
100	100	9	27	mm	100	1	867
Frame#	Time	R_Shoulder			L_Shoulder			C7			J_Notch			R_Elbow			L_Elbow			R_Wrist			L_Wrist			R_Asis			L_Asis			R_Psis			L_Psis			Sacral			Thoracic			Sternum			R_Thigh_Lateral			R_Knee_Lateral			R_Shank_Lateral			R_Ankle_Lateral			R_Heel			R_Toe			L_Thigh_Lateral			L_Knee_Lateral			L_Shank_Lateral			L_Ankle_Lateral			L_Heel			L_Toe		
		X1	Y1	Z1	X2	Y2	Z2	X3	Y3	Z3	X4	Y4	Z4	X5	Y5	Z5	X6	Y6	Z6	X7	Y7	Z7	X8	Y8	Z8	X9	Y9	Z9	X10	Y10	Z10	X11	Y11	Z11	X12	Y12	Z12	X13	Y13	Z13	X14	Y14	Z14	X15	Y15	Z15	X16	Y16	Z16	X17	Y17	Z17	X18	Y18	Z18	X19	Y19	Z19	X20	Y20	Z20	X21	Y21	Z21	X22	Y22	Z22	X23	Y23	Z23	X24	Y24	Z24	X25	Y25	Z25	X26	Y26	Z26	X27	Y27	Z27
1	0.00000000	-1874.223389	1259.125244	414.642731	-1792.060913	1261.830688	86.617699	-1880.273926	1320.942383	238.898483	-1764.828857	1210.491699	274.955139	-2003.100220	989.676331	420.201965	-1856.985840	975.938477	16.410248	-1816.469177	908.100586	450.726303	-1782.350037	781.853790	-4.308491	-1843.200195	884.952332	390.918213	-1795.555664	849.037537	154.967239	-1992.989868	881.188843	289.130188	-1981.682739	865.725769	203.246902	-1987.336304	873.457306	246.188545	-1939.268555	1027.799927	223.831696	-1745.400391	1029.063477	270.605652	-1850.204224	678.901367	502.197815	-1769.582275	454.723267	453.146149	-1796.608643	328.396515	526.816162	-1757.619385	115.303436	483.469360	-1793.677002	85.378075	430.768463	-1646.109619	78.767624	502.772095	-1867.050659	577.829041	71.761238	-1871.614746	394.199738	176.073822	-1907.770264	255.974609	123.371048	-1965.157715	58.533100	203.160416	-2014.558350	43.989056	240.154678	-1845.585571	33.800014	226.536392
2	0.01000000	-1871.648682	1258.748535	415.800720	-1791.602295	1261.687500	87.216820	-1878.900513	1320.628296	240.073669	-1763.124634	1210.300781	275.386597	-2000.238159	989.251465	422.101807	-1856.781860	975.783386	17.293928	-1813.632263	907.876648	451.521332	-1782.268555	781.722107	-4.111026	-1840.292358	884.377991	391.604767	-1794.118774	848.952332	155.331406	-1990.733032	880.676941	290.718445	-1979.879272	865.301392	204.745926	-1985.306152	872.989166	247.732185	-1937.593872	1027.397461	225.361771	-1743.450928	1028.942383	270.817596	-1847.085693	678.087341	502.695343	-1766.105225	454.154816	452.802399	-1792.633545	327.580719	526.451050	-1752.690796	114.727776	482.606720	-1788.899658	84.885674	430.053833	-1640.798218	78.321518	501.036865	-1865.541748	577.773071	72.021111	-1870.720825	394.049377	176.251755	-1907.384155	256.009552	123.386856	-1965.148438	58.523106	203.143097	-2014.554199	44.001850	240.186035	-1845.589600	33.765343	226.455582
3	0.02000000	-1868.989502	1258.341675	417.025208	-1791.128296	1261.547974	87.882027	-1877.484375	1320.296875	241.330750	-1761.366699	1210.101196	275.864655	-1997.204834	988.745117	424.045746	-1856.535278	975.633423	18.219719	-1810.519836	907.608978	452.242111	-1782.117554	781.614563	-3.901366	-1837.319824	883.804688	392.329926	-1792.617554	848.855774	155.739899	-1988.398682	880.154419	292.354614	-1978.002319	864.867126	206.293289	-1983.200500	872.510773	249.323952	-1935.846558	1026.974976	226.951691	-1741.432983	1028.812744	271.055908	-1843.818970	677.282776	503.199982	-1762.801636	453.484192	452.388153	-1788.892090	326.654022	525.987366	-1748.148193	114.030327	481.554108	-1784.557739	84.340797	429.188080	-1635.903564	77.641258	499.058746	-1863.960938	577.705811	72.348312	-1869.744141	393.883179	176.478348	-1906.937256	256.041962	123.439606	-1965.131958	58.519569	203.131607	-2014.553467	44.016186	240.218399	-1845.588379	33.732090	226.386978
4	0.03000000	-1866.246582	1257.903564	418.315521	-1790.633057	1261.409546	88.616165	-1876.021973	1319.946289	242.670197	-1759.552612	1209.891602	276.391846	-1994.006592	988.157837	426.025574	-1856.241333	975.486267	19.189579	-1807.138672	907.293488	452.884811	-1781.895874	781.527771	-3.677178	-1834.280029	883.230286	393.096161	-1791.049072	848.746033	156.194031	-1985.983276	879.620667	294.041473	-1976.049927	864.423096	207.891861	-1981.016602	872.021881	250.966667	-1934.022095	1026.530762	228.600723	-1739.343628	1028.673218	271.323822	-1840.409546	676.479126	503.709259	-1759.653931	452.712250	451.899963	-1785.344238	325.625916	525.427490	-1744.000366	113.211281	480.313354	-1780.674805	83.747147	428.187988	-1631.440918	76.721375	496.833588	-1862.319214	577.627319	72.746109	-1868.683960	393.699493	176.755676	-1906.424927	256.067108	123.534233	-1965.110352	58.523540	203.124878	-2014.555908	44.031113	240.252274	-1845.580933	33.699730	226.330841
5	0.04000000	-1863.420898	1257.433838	419.671173	-1790.111328	1261.269531	89.422035	-1874.509644	1319.574707	244.092361	-1757.679321	1209.671143	276.970764	-1990.650757	987.491943	428.035095	-1855.895142	975.339355	20.205706	-1803.504822	906.931030	453.450409	-1781.602478	781.458221	-3.436042	-1831.169678	882.651550	393.906006	-1789.410278	848.621216	156.694885	-1983.483643	879.075012	295.781830	-1974.019775	863.969727	209.544586	-1978.751709	871.522369	252.663208	-1932.115967	1026.062866	230.308334	-1737.180054	1028.522583	271.624908	-1836.867188	675.664917	504.219666	-1756.644409	451.839935	451.334290	-1781.951782	324.504669	524.772400	-1740.252808	112.271629	478.887634	-1777.268066	83.106583	427.066895	-1627.422119	75.560959	494.361664	-1860.629272	577.538086	73.215736	-1867.540405	393.496979	177.084488	-1905.842285	256.080109	123.674904	-1965.085815	58.535873	203.121353	-2014.559692	44.045570	240.288086	-1845.566650	33.667759	226.286591
6	0.05000000	-1860.513184	1256.931885	421.091797	-1789.557495	1261.125488	90.302322	-1872.944214	1319.180298	245.597626	-1755.744507	1209.438843	277.604187	-1987.145630	986.750977	430.070435	-1855.492065	975.190125	21.270494	-1799.637024	906.524963	453.942337	-1781.236572	781.402527	-3.175466	-1827.984375	882.064331	394.761719	-1787.698242	848.479736	157.243378	-1980.896240	878.517090	297.578278	-1971.909790	863.507507	211.254303	-1976.403015	871.012299	254.416290	-1930.124023	1025.569458	232.074036	-1734.939331	1028.359863	271.962769	-1833.203735	674.826416	504.727020	-1753.756348	450.868103	450.687958	-1778.680420	323.296570	524.022034	-1736.907837	111.213173	477.281250	-1774.346436	82.418694	425.832886	-1623.855103	74.164177	491.648743	-1858.905396	577.439331	73.756607	-1866.314575	393.274597	177.464249	-1905.185181	256.076447	123.864502	-1965.060059	58.557018	203.119354	-2014.563354	44.058746	240.325974	-1845.545532	33.635796	226.252930
7	0.06000000	-1857.524292	1256.397217	422.577087	-1788.966553	1260.974609	91.259598	-1871.322021	1318.761108	247.186188	-1753.745361	1209.193604	278.294769	-1983.500244	985.939575	432.130157	-1855.027954	975.036011	22.386505	-1795.550354	906.078888	454.363770	-1780.797180	781.357300	-2.892920	-1824.719604	881.463745	395.665314	-1785.909668	848.320007	157.840210	-1978.217163	877.946716	299.433289	-1969.717407	863.037231	213.023544	-1973.967285	870.491974	256.228416	-1928.041870	1025.048828	233.897369	-1732.618530	1028.184326	272.341034	-1829.431519	673.948975	505.226624	-1750.974854	449.797546	449.958832	-1775.502930	322.005432	523.175415	-1733.963135	110.038422	475.499664	-1771.909790	81.680557	424.487976	-1620.742676	72.540848	488.707581	-1857.161743	577.332336	74.366524	-1865.008911	393.031647	177.893234	-1904.451416	256.052551	124.103981	-1965.034180	58.586826	203.117279	-2014.564697	44.070335	240.365646	-1845.518311	33.603745	226.227722
8	0.07000000	-1854.454712	1255.829468	424.126953	-1788.333374	1260.814697	92.296211	-1869.639771	1318.315796	248.858154	-1751.679077	1208.934692	279.045135	-1979.723633	985.063171	434.215393	-1854.498535	974.874451	23.556404	-1791.255737	905.596283	454.717575	-1780.283325	781.319397	-2.585848	-1821.370239	880.844666	396.618408	-1784.041382	848.140320	158.486023	-1975.442871	877.363770	301.348755	-1967.440063	862.559631	214.854446	-1971.441467	869.961700	258.101601	-1925.865479	1024.499756	235.777740	-1730.214600	1027.995239	272.763336	-1825.561035	673.017883	505.713776	-1748.287964	448.628937	449.146301	-1772.401367	320.632233	522.231140	-1731.412476	108.750648	473.549866	-1769.946899	80.886742	423.028046	-1618.082275	70.706970	485.558929	-1855.412354	577.218750	75.041893	-1863.626343	392.767883	178.368820	-1903.640991	256.006500	124.392059	-1965.008545	58.624481	203.113876	-2014.562256	44.080669	240.406387	-1845.486938	33.571888	226.208191
9	0.08000000	-1851.305298	1255.228149	425.741364	-1787.652832	1260.643433	93.414276	-1867.894165	1317.842896	250.613434	-1749.543335	1208.661377	279.857819	-1975.824585	984.127625	436.329376	-1853.900391	974.703186	24.782896	-1786.765503	905.081909	455.008820	-1779.694092	781.285858	-2.251699	-1817.931519	880.201599	397.622192	-1782.089844	847.939209	159.181412	-1972.569824	876.768616	303.326080	-1965.074829	862.075684	216.748489	-1968.822327	869.422150	260.037285	-1923.590942	1023.920959	237.714447	-1727.724854	1027.792236	273.233215	-1821.599976	672.019653	506.183929	-1745.687500	447.362946	448.251740	-1769.368896	319.175323	521.187866	-1729.244385	107.353912	471.440277	-1768.435547	80.029320	421.443146	-1615.864990	68.684998	482.232239	-1853.669189	577.100281	75.777962	-1862.171021	392.483276	178.887619	-1902.757812	255.938095	124.725082	-1964.982910	58.668533	203.108368	-2014.554810	44.090664	240.447174	-1845.454346	33.540901	226.190872
